<?xml version="1.0" encoding="UTF-8"?>
<svg width="22px" height="22px" viewBox="0 0 22 22" version="1.1" xmlns="http://www.w3.org/2000/svg" xmlns:xlink="http://www.w3.org/1999/xlink">
    <!-- Generator: sketchtool 60.1 (101010) - https://sketch.com -->
    <title>6D3D1DBB-5314-4288-8759-07BF81788520</title>
    <desc>Created with sketchtool.</desc>
    <defs>
        <path d="M21.2666667,0.733333333 C20.7333333,0.2 19.9333333,0.2 19.4,0.733333333 L11,9.13333333 L2.6,0.733333333 C2.06666667,0.2 1.26666667,0.2 0.733333333,0.733333333 C0.2,1.26666667 0.2,2.06666667 0.733333333,2.6 L9.13333333,11 L0.733333333,19.4 C0.2,19.9333333 0.2,20.7333333 0.733333333,21.2666667 C1,21.5333333 1.26666667,21.6666667 1.66666667,21.6666667 C2.06666667,21.6666667 2.33333333,21.5333333 2.6,21.2666667 L11,12.8666667 L19.4,21.2666667 C19.6666667,21.5333333 20.0666667,21.6666667 20.3333333,21.6666667 C20.6,21.6666667 21,21.5333333 21.2666667,21.2666667 C21.8,20.7333333 21.8,19.9333333 21.2666667,19.4 L12.8666667,11 L21.2666667,2.6 C21.8,2.06666667 21.8,1.26666667 21.2666667,0.733333333" id="path-1"></path>
    </defs>
    <g id="V2-Desktop" stroke="none" stroke-width="1" fill="none" fill-rule="evenodd">
        <g id="07.2" transform="translate(-1029.000000, -225.000000)">
            <g id="Group-6" transform="translate(356.000000, 191.000000)">
                <g id="Group-8">
                    <g id="A-/-Icon-/-24x24-/-Close" transform="translate(673.000000, 34.000000)">
                        <mask id="mask-2" fill="white">
                            <use xlink:href="#path-1"></use>
                        </mask>
                        <use id="Mask" fill="#FFFFFF" xlink:href="#path-1"></use>
                        <rect id="Color-Icon" fill="#FFFFFF" mask="url(#mask-2)" x="-5" y="-5" width="32" height="32"></rect>
                    </g>
                </g>
            </g>
        </g>
    </g>
</svg>