<?xml version="1.0" encoding="UTF-8"?>
<svg width="23px" height="23px" viewBox="0 0 23 23" version="1.1" xmlns="http://www.w3.org/2000/svg" xmlns:xlink="http://www.w3.org/1999/xlink">
    <!-- Generator: sketchtool 60.1 (101010) - https://sketch.com -->
    <title>41028FC3-2C95-43CA-BF09-AF974D5C2B16</title>
    <desc>Created with sketchtool.</desc>
    <defs>
        <path d="M11.5,0 C17.8512746,0 23,5.14872538 23,11.5 C23,17.8512746 17.8512746,23 11.5,23 C5.14872538,23 0,17.8512746 0,11.5 C0,5.14872538 5.14872538,0 11.5,0 Z M11.5,2.09090909 C6.30350258,2.09090909 2.09090909,6.30350258 2.09090909,11.5 C2.09090909,16.6964974 6.30350258,20.9090909 11.5,20.9090909 C16.6964974,20.9090909 20.9090909,16.6964974 20.9090909,11.5 C20.9090909,6.30350258 16.6964974,2.09090909 11.5,2.09090909 Z M11.5,16.2916667 C12.029,16.2916667 12.4583333,16.721 12.4583333,17.25 C12.4583333,17.779 12.029,18.2083333 11.5,18.2083333 C10.971,18.2083333 10.5416667,17.779 10.5416667,17.25 C10.5416667,16.721 10.971,16.2916667 11.5,16.2916667 Z M11.5,4.79166667 C13.5776667,4.79166667 15.3333333,6.54733333 15.3333333,8.625 C15.3333333,10.373 14.090375,11.893875 12.4583333,12.3318333 L12.4583333,14.375 L10.5416667,14.375 L10.5416667,11.5 C10.5416667,10.971 10.9700417,10.5416667 11.5,10.5416667 C12.520625,10.5416667 13.4166667,9.645625 13.4166667,8.625 C13.4166667,7.604375 12.520625,6.70833333 11.5,6.70833333 C10.7218333,6.70833333 9.97433333,7.35233333 9.70216667,7.97525 C9.490375,8.45920833 8.93070833,8.6825 8.441,8.46975 C7.95608333,8.25795833 7.73375,7.69254167 7.9465,7.207625 C8.55791667,5.80845833 10.0519583,4.79166667 11.5,4.79166667 Z" id="path-1"></path>
    </defs>
    <g id="V2-Desktop" stroke="none" stroke-width="1" fill="none" fill-rule="evenodd">
        <g id="05" transform="translate(-1179.000000, -59.000000)">
            <g id="Group" transform="translate(1179.000000, 59.000000)">
                <mask id="mask-2" fill="white">
                    <use xlink:href="#path-1"></use>
                </mask>
                <use id="Mask" fill="#35261A" xlink:href="#path-1"></use>
                <rect id="Rectangle" fill="#35261A" mask="url(#mask-2)" x="-1" y="-1" width="25" height="25"></rect>
            </g>
        </g>
    </g>
</svg>