<?xml version="1.0" encoding="UTF-8"?>
<svg width="70px" height="70px" viewBox="0 0 70 70" version="1.1" xmlns="http://www.w3.org/2000/svg" xmlns:xlink="http://www.w3.org/1999/xlink">
    <title>7680CDD2-662F-4D4E-B5E5-DEA37C3B6A45xxxhdpi/</title>
    <g id="Page-1" stroke="none" stroke-width="1" fill="none" fill-rule="evenodd">
        <g id="03-KO-pago" transform="translate(-680.000000, -256.000000)" fill="#EC0000">
            <path d="M715,256 C734.30013,256 750,271.69987 750,291 C750,310.30013 734.30013,326 715,326 C695.69987,326 680,310.30013 680,291 C680,271.69987 695.69987,256 715,256 Z M715,263 C699.5625,263 687,275.5625 687,291 C687,306.4375 699.5625,319 715,319 C730.4375,319 743,306.4375 743,291 C743,275.5625 730.4375,263 715,263 Z M728.785002,275 C729.375136,275 729.940832,275.235692 730.356405,275.65471 C731.214532,276.518006 731.214532,277.912261 730.356405,278.775557 L718.633,290.498 L730.34548,302.214645 C730.764377,302.630292 731,303.196088 731,303.786327 C731,304.376565 730.764377,304.942362 730.34548,305.358008 C729.927898,305.772371 729.362596,306.003365 728.774447,306 C728.186299,306.003365 727.620997,305.772371 727.203414,305.358008 L715.491,293.641 L703.79748,305.335953 C703.383445,305.758387 702.817557,305.997507 702.226077,306 C701.63779,306.003364 701.072355,305.772399 700.654674,305.358087 C700.235679,304.94249 700,304.376763 700,303.786597 C700,303.19643 700.235679,302.630703 700.654674,302.215106 L712.36,290.508 L700.650743,278.794375 C699.783086,277.926359 699.783086,276.519028 700.650743,275.651012 C701.518401,274.782996 702.925152,274.782996 703.792809,275.651012 L715.502,287.366 L727.213599,275.65471 C727.629172,275.235692 728.194868,275 728.785002,275 Z" id="Combined-Shape"></path>
        </g>
    </g>
</svg>