<?xml version="1.0" encoding="UTF-8"?>
<svg width="178px" height="186px" viewBox="0 0 178 186" version="1.1" xmlns="http://www.w3.org/2000/svg" xmlns:xlink="http://www.w3.org/1999/xlink">
    <!-- Generator: sketchtool 60.1 (101010) - https://sketch.com -->
    <title>704638F7-7329-47A7-8F4E-7F2E9FA5705B</title>
    <desc>Created with sketchtool.</desc>
    <defs>
        <polygon id="path-1" points="0.3247 0.1504 90.6837 0.1504 90.6837 49 0.3247 49"></polygon>
        <polygon id="path-3" points="0.8434 0.1924 88.1564 0.1924 88.1564 31 0.8434 31"></polygon>
    </defs>
    <g id="Desktop-V2" stroke="none" stroke-width="1" fill="none" fill-rule="evenodd">
        <g id="12" transform="translate(-827.000000, -371.000000)">
            <g id="Group-2" transform="translate(823.000000, 370.313708)">
                <circle id="Oval-Copy" fill="#E2F7F8" cx="95" cy="98.6862915" r="87"></circle>
                <g id="Group-31" transform="translate(20.000000, 23.686292)">
                    <polygon id="Fill-1" fill="#FFB031" points="0 -0.0004 13.43 31.5116 23.246 24.7956 28.934 33.0606 29.961 19.1186 41.84 11.8796"></polygon>
                    <polygon id="Fill-2" fill="#FF9433" points="25.422 23.3044 13.43 31.5114 23.246 24.7954 28.934 33.0614 29.961 19.1174 11.031 7.8444"></polygon>
                    <polygon id="Fill-3" fill="#FF7733" points="29.7091 22.5359 11.0311 7.8449 29.9611 19.1179"></polygon>
                    <g id="Group-30" transform="translate(5.000000, 24.782000)">
                        <path d="M25.6466,14.6318 C25.5026,13.7968 25.3196,12.9638 25.1036,12.1548 L26.3566,11.8188 C26.5836,12.6658 26.7736,13.5378 26.9236,14.4108 L25.6466,14.6318 Z" id="Fill-4" fill="#B8DFE8"></path>
                        <path d="M26.881,25.0146 L25.605,24.7876 C25.902,23.1116 26.056,21.4036 26.066,19.7096 L27.362,19.7166 C27.354,21.4826 27.192,23.2656 26.881,25.0146 L26.881,25.0146 Z M18.004,25.7786 C16.53,25.4496 15.018,25.2816 13.51,25.2816 L12.984,25.2876 L12.952,23.9916 C14.737,23.9476 16.539,24.1206 18.288,24.5136 L18.004,25.7786 Z M3.718,28.3106 L2.812,27.3836 C3.953,26.2656 5.514,25.4286 7.584,24.8226 L8.02,26.0456 C6.113,26.6036 4.691,27.3586 3.718,28.3106 L3.718,28.3106 Z M27.036,30.2616 C25.843,29.3916 24.562,28.4796 23.175,27.7206 L22.741,27.4906 L23.335,26.3376 C23.489,26.4166 23.645,26.4996 23.797,26.5826 C25.252,27.3786 26.626,28.3576 27.8,29.2126 L27.036,30.2616 Z M82.74,31.9696 L82.34,30.7366 C83.988,30.2016 85.629,29.6426 87.26,29.0626 L87.694,30.2856 C86.052,30.8686 84.4,31.4316 82.74,31.9696 L82.74,31.9696 Z M72.663,34.8416 L72.358,33.5816 C73.98,33.1876 75.668,32.7416 77.374,32.2526 L77.731,33.4996 C76.007,33.9926 74.303,34.4436 72.663,34.8416 L72.663,34.8416 Z M23.277,34.9856 L22.152,34.3396 C22.993,32.8776 23.712,31.3216 24.292,29.7156 L25.512,30.1546 C24.907,31.8326 24.155,33.4576 23.277,34.9856 L23.277,34.9856 Z M36.22,35.5016 C34.695,34.9836 33.267,34.3496 31.972,33.6186 C31.769,33.5056 31.567,33.3866 31.365,33.2646 L32.035,32.1546 C32.225,32.2686 32.415,32.3806 32.608,32.4886 C33.834,33.1816 35.189,33.7816 36.638,34.2746 L36.22,35.5016 Z M62.357,36.8126 L62.182,35.5276 C63.85,35.3006 65.569,35.0156 67.291,34.6846 L67.537,35.9576 C65.791,36.2946 64.049,36.5826 62.357,36.8126 L62.357,36.8126 Z M46.617,37.4026 L45.788,37.3386 C44.194,37.2056 42.75,37.0266 41.373,36.7876 L41.593,35.5106 C42.934,35.7426 44.34,35.9166 45.897,36.0466 L46.707,36.1076 L46.617,37.4026 Z M51.877,37.5726 L51.87,36.2756 C53.56,36.2676 55.298,36.1986 57.036,36.0706 L57.132,37.3636 C55.364,37.4936 53.596,37.5646 51.877,37.5726 L51.877,37.5726 Z M1.701,37.8686 C0.97,36.3866 0.583,34.7576 0.583998067,33.1576 C0.583998067,33.0256 0.586,32.8936 0.592,32.7636 L0.608,32.4816 L1.901,32.5766 L1.888,32.8126 C1.883,32.9296 1.881,33.0436 1.881,33.1576 C1.88,34.5596 2.22,35.9906 2.864,37.2946 L1.701,37.8686 Z M15.906,42.6896 L15.334,41.5266 C16.683,40.8636 17.987,39.8356 19.213,38.4716 L20.178,39.3376 C18.842,40.8256 17.404,41.9536 15.906,42.6896 L15.906,42.6896 Z M10.52,43.7476 C8.637,43.6216 6.835,43.0216 5.311,42.0106 L6.027,40.9296 C7.364,41.8156 8.947,42.3426 10.606,42.4526 L10.52,43.7476 Z" id="Fill-6" fill="#B8DFE8"></path>
                        <path d="M92.6583,28.4565 L92.1973,27.2445 C93.0043,26.9365 93.8103,26.6245 94.6153,26.3105 L95.0863,27.5185 C94.2793,27.8335 93.4703,28.1475 92.6583,28.4565" id="Fill-8" fill="#B8DFE8"></path>
                        <path d="M117.6788,59.1523 L72.4988,85.7953 L27.3198,59.1523 C27.3198,59.1303 27.3198,59.1003 27.3268,59.0783 C27.3638,58.9093 29.8578,56.8273 33.6598,53.7383 C33.6978,53.7093 33.7268,53.6793 33.7638,53.6503 C46.2388,43.5213 72.4988,22.7773 72.4988,22.7773 C72.4988,22.7773 98.7598,43.5213 111.2358,53.6503 C115.0968,56.7833 117.6348,58.9023 117.6718,59.0783 C117.6788,59.1003 117.6788,59.1303 117.6788,59.1523" id="Fill-10" fill="#006368"></path>
                        <path d="M91.0802,0.7129 L42.3342,0.7129 C38.1522,0.7129 34.7632,4.1019 34.7632,8.2829 L34.7632,81.9859 C34.7632,86.1679 38.1522,89.5569 42.3342,89.5569 L103.4142,89.5569 C107.5952,89.5569 110.9842,86.1679 110.9842,81.9859 L110.9842,20.6179 L91.0802,0.7129 Z" id="Fill-12" fill="#FFFFFF"></path>
                        <path d="M91.0802,13.0473 C91.0802,17.2283 94.4692,20.6173 98.6502,20.6173 L110.9842,20.6173 L91.0802,0.7133 L91.0802,13.0473 Z" id="Fill-14" fill="#E6E8E8"></path>
                        <path d="M65.8078,13.1709 L48.9908,13.1709 C47.5008,13.1709 46.2928,14.3789 46.2928,15.8679 L46.2928,32.6859 C46.2928,34.1749 47.5008,35.3819 48.9908,35.3819 L65.8078,35.3819 C67.2968,35.3819 68.5038,34.1749 68.5038,32.6859 L68.5038,15.8679 C68.5038,14.3789 67.2968,13.1709 65.8078,13.1709" id="Fill-16" fill="#00D1D1"></path>
                        <path d="M88.8458,41.5547 L48.4928,41.5547 C47.2928,41.5547 46.3208,42.5277 46.3208,43.7277 C46.3208,44.9277 47.2928,45.9007 48.4928,45.9007 L88.8458,45.9007 C90.0458,45.9007 91.0188,44.9277 91.0188,43.7277 C91.0188,42.5277 90.0458,41.5547 88.8458,41.5547" id="Fill-18" fill="#D9DBDB"></path>
                        <path d="M88.8458,52.3789 L48.4928,52.3789 C47.2928,52.3789 46.3208,53.3519 46.3208,54.5519 C46.3208,55.7519 47.2928,56.7249 48.4928,56.7249 L88.8458,56.7249 C90.0458,56.7249 91.0188,55.7519 91.0188,54.5519 C91.0188,53.3519 90.0458,52.3789 88.8458,52.3789" id="Fill-20" fill="#D9DBDB"></path>
                        <path d="M70.5197,62.8789 L48.4937,62.8789 C47.2927,62.8789 46.3207,63.8519 46.3207,65.0519 C46.3207,66.2519 47.2927,67.2249 48.4937,67.2249 L70.5197,67.2249 C71.7197,67.2249 72.6927,66.2519 72.6927,65.0519 C72.6927,63.8519 71.7197,62.8789 70.5197,62.8789" id="Fill-22" fill="#D9DBDB"></path>
                        <g id="Group-26" transform="translate(27.000000, 59.000000)">
                            <mask id="mask-2" fill="white">
                                <use xlink:href="#path-1"></use>
                            </mask>
                            <g id="Clip-25"></g>
                            <path d="M90.6837,0.1504 L90.6837,43.4944 C90.6837,46.5244 88.2077,49.0004 85.1777,49.0004 L5.8157,49.0004 C2.7867,49.0004 0.3247,46.5244 0.3247,43.4944 L0.3247,0.1504 L45.5037,26.7894 L90.6837,0.1504 Z" id="Fill-24" fill="#01B4BD" mask="url(#mask-2)"></path>
                        </g>
                        <g id="Group-29" transform="translate(28.000000, 77.000000)">
                            <mask id="mask-4" fill="white">
                                <use xlink:href="#path-3"></use>
                            </mask>
                            <g id="Clip-28"></g>
                            <path d="M88.1564,29.2754 L59.0774,0.1964 L44.5044,8.7894 L29.9254,0.1924 L0.8434,29.2734 C1.8444,30.3314 3.2504,31.0004 4.8154,31.0004 L84.1774,31.0004 C85.7434,31.0004 87.1524,30.3314 88.1564,29.2754" id="Fill-27" fill="#B8DFE8" mask="url(#mask-4)"></path>
                        </g>
                    </g>
                </g>
                <path d="M86.3153043,4.00139627 L98.3137085,4.00019949 C99.418278,3.99969037 100.313798,4.89503156 100.313908,5.99960105 C100.313908,5.99973404 100.313908,5.99986704 100.313509,5.99999999 L100.312312,17.9984042 C100.311803,19.1028179 99.4165264,19.9980945 98.3121127,19.9986037 L86.3137085,19.9998005 C85.209139,20.0003096 84.3136192,19.1049684 84.313509,18.000399 C84.313509,18.000266 84.313509,18.000133 84.313908,18 L84.3151048,6.00159575 C84.3156139,4.89718211 85.2108906,4.00190545 86.3153043,4.00139627 Z" id="Rectangle-Copy-4" fill="#FFCD0D" transform="translate(92.313708, 12.000000) rotate(-315.000000) translate(-92.313708, -12.000000) "></path>
                <rect id="Rectangle-Copy-5" fill="#E20614" transform="translate(163.000000, 45.686292) rotate(-315.000000) translate(-163.000000, -45.686292) " x="159" y="41.6862915" width="8" height="8" rx="2"></rect>
                <path d="M12.5008477,124.687139 C17.1938636,124.686671 20.9986841,128.490733 20.9991523,133.183749 C20.9991523,133.184314 20.9991523,133.184879 20.9991523,133.185444 C20.998684,137.87967 17.1933787,141.684976 12.4991523,141.685444 C7.80613638,141.685912 4.00131585,137.88185 4.00084775,133.188834 C4.00084769,133.188269 4.00084769,133.187704 4.00084775,133.187139 C4.00131597,128.492913 7.80662133,124.687607 12.5008477,124.687139 Z" id="Rectangle-Copy-6" fill="#B8DFE8" transform="translate(12.500000, 133.186292) rotate(-315.000000) translate(-12.500000, -133.186292) "></path>
                <path d="M116.000399,178.68669 C118.208877,178.68647 119.999381,180.476617 119.999601,182.685095 C119.999601,182.685361 119.999601,182.685627 119.999601,182.685893 C119.999381,184.89494 118.208649,186.685672 115.999601,186.685893 C113.791123,186.686113 112.000619,184.895966 112.000399,182.687488 C112.000399,182.687222 112.000399,182.686956 112.000399,182.68669 C112.000619,180.477643 113.791351,178.686911 116.000399,178.68669 Z" id="Rectangle-Copy-7" fill="#1C416B" transform="translate(116.000000, 182.686292) rotate(-315.000000) translate(-116.000000, -182.686292) "></path>
            </g>
        </g>
    </g>
</svg>