<?xml version="1.0" encoding="UTF-8"?>
<svg width="22px" height="22px" viewBox="0 0 22 22" version="1.1" xmlns="http://www.w3.org/2000/svg" xmlns:xlink="http://www.w3.org/1999/xlink">
    <!-- Generator: sketchtool 60.1 (101010) - https://sketch.com -->
    <title>D48CE60F-9DF3-4EF9-9691-32939C5D7C66</title>
    <desc>Created with sketchtool.</desc>
    <defs>
        <path d="M11,0 C17.0751322,0 22,4.92486775 22,11 C22,17.0751322 17.0751322,22 11,22 C4.92486775,22 0,17.0751322 0,11 C0,4.92486775 4.92486775,0 11,0 Z M11,2 C6.02943725,2 2,6.02943725 2,11 C2,15.9705627 6.02943725,20 11,20 C15.9705627,20 20,15.9705627 20,11 C20,6.02943725 15.9705627,2 11,2 Z M11,16.1428571 C11.552,16.1428571 12,16.5588571 12,17.0714286 C12,17.584 11.552,18 11,18 C10.448,18 10,17.584 10,17.0714286 C10,16.5588571 10.448,16.1428571 11,16.1428571 Z M11.9963636,5 L11.9963636,14.1168831 L10,14.1168831 L10,5 L11.9963636,5 Z" id="path-1"></path>
    </defs>
    <g id="V2" stroke="none" stroke-width="1" fill="none" fill-rule="evenodd">
        <g id="11" transform="translate(-39.000000, -729.000000)">
            <g id="Rectangle" transform="translate(39.000000, 729.000000)">
                <mask id="mask-2" fill="white">
                    <use xlink:href="#path-1"></use>
                </mask>
                <use id="Mask" fill="#1BB3BC" transform="translate(11.000000, 11.000000) scale(1, -1) translate(-11.000000, -11.000000) " xlink:href="#path-1"></use>
            </g>
        </g>
    </g>
</svg>