<?xml version="1.0" encoding="UTF-8"?>
<svg width="709px" height="388px" viewBox="0 0 709 388" version="1.1" xmlns="http://www.w3.org/2000/svg" xmlns:xlink="http://www.w3.org/1999/xlink">
    <!-- Generator: sketchtool 60.1 (101010) - https://sketch.com -->
    <title>C092BCB3-CA2E-4A08-A129-8D86A063F711</title>
    <desc>Created with sketchtool.</desc>
    <defs>
        <path d="M932.59299,242.338133 C946.193061,350.652974 616.368196,421.303039 332.480289,371.998062 C48.5923824,322.693086 -81.6419288,130.151591 53.8246473,27.5579143 C189.291223,-75.0357627 918.992919,134.023292 932.59299,242.338133 Z" id="path-1"></path>
        <polygon id="path-3" points="0 327 239.785952 327 239.785952 0.126243832 0 0.126243832"></polygon>
    </defs>
    <g id="Desktop-V2" stroke="none" stroke-width="1" fill="none" fill-rule="evenodd">
        <g id="06" transform="translate(0.000000, -317.000000)">
            <g id="Group-2" transform="translate(-254.000000, 231.000000)">
                <g id="Group-26" transform="translate(18.000000, 86.000000)">
                    <mask id="mask-2" fill="white">
                        <use xlink:href="#path-1"></use>
                    </mask>
                    <use id="Mask" fill="#EEF8FB" transform="translate(466.500000, 194.000000) scale(-1, 1) translate(-466.500000, -194.000000) " xlink:href="#path-1"></use>
                    <g mask="url(#mask-2)">
                        <g transform="translate(452.000000, 70.000000)">
                            <polygon id="Fill-1" fill="#7B8AAF" points="95.1175665 20 35 123 115 123 115 23.9560398"></polygon>
                            <polygon id="Fill-2" fill="#7B8AAF" points="177 52 129.5392 177 98 168.93543 127.774605 54.665463"></polygon>
                            <polygon id="Fill-3" fill="#FFFFFF" points="79.5341757 104.378376 86.4377594 100 128.591076 109.981659 157 157.623733 157 313 86.4377594 313 73 141.45134"></polygon>
                            <g id="Group-25" stroke-width="1" fill="none">
                                <path d="M136.259429,75.0330451 C118.796571,70.5449819 108.290381,52.797757 112.793,35.3934311 C117.295857,17.988868 135.102524,7.51774898 152.565381,12.0053375 C170.028238,16.4931634 180.534429,34.2403883 176.031571,51.6449515 C171.528952,69.0495146 153.722286,79.5206336 136.259429,75.0330451 Z" id="Fill-4" fill="#7B8AAF"></path>
                                <mask id="mask-4" fill="white">
                                    <use xlink:href="#path-3"></use>
                                </mask>
                                <g id="Clip-7"></g>
                                <polygon id="Fill-6" fill="#C3DDE6" mask="url(#mask-4)" points="108.636905 266.281938 152.86619 266.281938 152.86619 255.800852 108.636905 255.800852"></polygon>
                                <path d="M178.617357,203.353849 L174.20331,137.375073 C173.694024,129.762475 168.637119,123.203491 161.387357,120.753127 L124.342119,108.23102 L132.846167,123.320006 C134.855452,126.885207 136.331405,130.723779 137.227595,134.713986 L146.588071,176.401028 C147.559024,180.725117 147.935452,185.160736 147.707595,189.585915 L145.167595,238.873215 L178.617357,203.353849 Z" id="Fill-8" fill="#FDD134" mask="url(#mask-4)"></path>
                                <path d="M202.306667,227.117731 L195.048095,242.548667 C191.241429,250.640849 181.486667,254.008854 173.473333,249.997765 L164.496667,245.504244 L171.76,229.538196 L202.306667,227.117731 Z" id="Fill-9" fill="#FDD134" mask="url(#mask-4)"></path>
                                <path d="M67.2351905,108.231139 L77.5678095,97.9610131 C79.979,95.5642787 84.066381,96.4316118 85.2887619,99.5993353 L114.96781,176.506983 C116.926143,181.58189 117.859476,186.992577 117.713524,192.428181 L114.443048,314.393486 C114.249,321.633047 108.136381,327.307375 100.877095,326.987257 L39.941381,324.297931 C33.296619,324.004628 28.4987619,317.846681 29.8592381,311.357701 L47.8825714,225.387076 L40.7199524,191.21961 L67.2351905,108.231139 Z" id="Fill-10" fill="#FDD134" mask="url(#mask-4)"></path>
                                <path d="M145.167667,238.873144 L145.167667,314.657411 C145.167667,320.32723 150.399095,324.562094 155.966714,323.399322 L168.844095,320.710708 C176.462667,319.120083 180.822429,311.089362 177.990286,303.863089 L158.624095,254.445511 L172.721238,196.428876 L147.048381,202.377286 L145.167667,238.873144 Z" id="Fill-11" fill="#FDD134" mask="url(#mask-4)"></path>
                                <polygon id="Fill-12" fill="#FFFFFF" mask="url(#mask-4)" points="172.126238 262.559619 239.785762 145.761294 197.024571 145.761294 129.365048 262.559619"></polygon>
                                <polygon id="Fill-13" fill="#2D4269" mask="url(#mask-4)" points="158.871738 245.734923 139.0065 245.734923 134.734357 209.934356 163.143881 209.934356"></polygon>
                                <polygon id="Fill-14" fill="#C3DDE6" mask="url(#mask-4)" points="132.75 210.820792 165.128333 210.820792 165.128333 208.053157 132.75 208.053157"></polygon>
                                <polygon id="Fill-15" fill="#C3DDE6" mask="url(#mask-4)" points="136.512381 208.053157 161.365714 208.053157 161.365714 205.285522 136.512381 205.285522"></polygon>
                                <path d="M131.633905,92.9143685 L129.514381,101.10503 L122.297952,128.999697 C122.297952,128.999697 114.774381,128.86752 106.39581,124.363795 C104.987476,123.60562 103.554143,122.7231 102.126286,121.69725 C101.589619,121.31401 101.055571,120.908464 100.521524,120.481085 C95.317,116.313853 90.3748571,110.073326 87.287,100.796065 C89.3458095,97.1171965 99.7191429,77.4929251 103.875333,48.5942408 L106.523429,52.8248329 L123.280333,79.5778467 L131.633905,92.9143685 Z" id="Fill-16" fill="#F4A38C" mask="url(#mask-4)"></path>
                                <path d="M131.633905,92.9143685 L129.514381,101.10503 C123.183429,96.0884991 115.006762,86.9934853 116.061048,73.968539 L123.280333,79.5778467 L131.633905,92.9143685 Z" id="Fill-17" fill="#F4A38C" mask="url(#mask-4)"></path>
                                <path d="M161.007048,32.7989543 L133.640857,20.7951118 L122.09181,41.5662562 L117.597286,54.8550806 L99.8244286,62.1169485 C95.2860952,56.6279521 92.2420476,49.8041408 91.3977619,42.2088657 C89.0851429,21.401889 104.135619,2.66464659 125.012286,0.35974746 C143.812286,-1.71568215 160.937762,10.2454463 165.833238,27.8486299 L161.007048,32.7989543 Z" id="Fill-18" fill="#7B8AAF" mask="url(#mask-4)"></path>
                                <path d="M158.540167,70.971482 L162.64731,38.5147149 C162.8235,33.034736 159.898976,27.9194878 155.0785,25.2776221 C143.614452,18.9943811 129.22231,22.7344733 122.295881,33.7964704 L122.217548,33.921765 L121.991833,34.2798514 L115.494929,45.982797 L115.486357,45.9934755 L114.955167,46.963797 L111.505881,53.1756104 L110.326595,55.3049073 L108.509214,58.5924675 C107.4385,60.5183978 110.70731,69.9717353 113.660643,77.6168434 C116.430405,84.7859269 122.406357,90.2908224 129.839214,92.3247244 C129.995881,92.3676758 130.150167,92.4087287 130.301833,92.447646 C140.8485,95.1550067 151.420405,88.1548811 152.956833,77.4087309 C153.490405,73.6757578 153.859929,70.8381192 153.930643,70.7087904 L158.540167,70.971482 Z" id="Fill-19" fill="#F4A38C" mask="url(#mask-4)"></path>
                                <path d="M110.335762,59.9319573 C106.980524,60.3021459 103.788619,56.3553651 103.206238,51.1167207 C102.624095,45.877839 104.871952,41.3304507 108.22719,40.960262 C111.58219,40.5898361 114.774333,44.5363796 115.356476,49.7752613 C115.938619,55.014143 113.690762,59.561294 110.335762,59.9319573 Z" id="Fill-20" fill="#F4A38C" mask="url(#mask-4)"></path>
                                <path d="M157.3895,50.4458486 L150.914262,65.1805446 C149.797595,67.7220322 151.427119,70.7086955 153.93069,70.7086955 L157.3895,50.4458486 Z" id="Fill-21" fill="#FFC3B8" mask="url(#mask-4)"></path>
                                <path d="M107.250548,250.560333 L113.416738,251.777921 C119.348881,252.949474 125.397929,253.427159 131.440786,253.201961 L154.855548,252.329645 C156.344595,252.274117 157.522929,251.054867 157.522929,249.570078 C157.522929,248.12658 156.408167,246.926789 154.964357,246.816207 L146.4115,246.160546 L161.182214,243.416166 C162.360548,243.197138 163.215071,242.172237 163.215071,240.977429 C163.215071,239.607257 162.100548,238.496453 160.726024,238.496453 L160.509357,238.496453 L162.799595,237.518301 C163.829119,237.078583 164.496738,236.069819 164.496738,234.953321 C164.496738,233.628472 163.561976,232.486108 162.259833,232.21962 L156.522214,231.045457 L161.211738,229.736508 C162.596262,229.350183 163.469357,227.989502 163.240548,226.574717 C163.053643,225.420962 162.1715,224.501897 161.023405,224.264597 L149.117214,221.804503 C146.660071,221.296918 144.14531,221.121078 141.641262,221.281968 L127.7565,222.174929 L102.836024,228.98735 L52.4253095,234.52262 C52.4253095,234.52262 41.7450714,251.412004 53.1372143,261.914684 L107.250548,250.560333 Z" id="Fill-22" fill="#F4A38C" mask="url(#mask-4)"></path>
                                <path d="M189.340952,232.842604 L184.187619,225.089525 C182.798333,222.94599 182.999762,220.117843 184.739048,218.244593 C184.88119,218.091535 185.000714,217.9838 185.086429,217.939662 C184.808333,216.268355 185.349286,214.56525 186.542143,213.358103 L188.040952,211.840567 C187.403095,210.112545 187.857857,208.172139 189.198095,206.904718 L191.230476,204.983296 C191.029524,203.776623 191.512381,202.558085 192.485952,201.813674 L193.042857,201.387957 C194.079286,200.595374 195.485952,200.481944 196.636905,201.097976 L202.367857,204.164135 C204.61,205.364163 206.359048,207.309552 207.31,209.662149 L205.880476,201.072585 C205.520952,198.91149 206.250238,196.712189 207.830952,195.190144 C208.505476,194.540653 209.466429,194.279385 210.378333,194.497939 C211.761667,194.829448 212.661429,196.159279 212.45119,197.561488 L212.07,200.099653 L213.241667,203.050247 C214.262143,205.620685 214.531667,208.426525 214.018571,211.143141 L213.854524,212.013559 C213.516667,213.802804 212.96881,215.54625 212.222619,217.208302 C208.990476,224.403252 204.609524,231.028205 199.250238,236.825455 L199.24381,236.832337 C197.850714,238.339432 196.06619,239.452371 194.07381,239.958295 C191.840476,240.525443 188.654286,240.542054 186.18619,238.288412 L189.340952,232.842604 Z" id="Fill-23" fill="#F4A38C" mask="url(#mask-4)"></path>
                                <path d="M69.1820238,227.852105 L53.1372619,267.875671 L19.7822619,263.847022 C6.2472619,262.212022 -2.7225,249.041135 0.749642857,235.900861 L27.4555952,134.834843 C30.0808333,124.899548 37.7053571,117.042531 47.5805952,114.095971 L67.235119,108.231091 L39.0394048,228.703539 L69.1820238,227.852105 Z" id="Fill-24" fill="#FDD134" mask="url(#mask-4)"></path>
                            </g>
                        </g>
                    </g>
                </g>
                <path d="M955.59299,306.338133 C969.193061,414.652974 639.368196,485.303039 355.480289,435.998062 C71.5923824,386.693086 -58.6419288,194.151591 76.8246473,91.5579143 C212.291223,-11.0357627 941.992919,198.023292 955.59299,306.338133 Z" id="Background-Shape-Copy" stroke="#1BB3BC" opacity="0.432547433" transform="translate(489.500000, 258.000000) scale(-1, 1) rotate(-8.000000) translate(-489.500000, -258.000000) "></path>
                <path d="M814.001197,104.000997 L822,104.000199 C823.104569,103.99969 824.000089,104.895032 824.000199,105.999601 C824.000199,105.999734 824.000199,105.999867 823.999801,106 L823.999003,113.998803 C823.998493,115.103217 823.103217,115.998493 821.998803,115.999003 L814,115.999801 C812.895431,116.00031 811.999911,115.104968 811.999801,114.000399 C811.999801,114.000266 811.999801,114.000133 812.000199,114 L812.000997,106.001197 C812.001507,104.896783 812.896783,104.001507 814.001197,104.000997 Z" id="Rectangle" fill="#00D1D1" transform="translate(818.000000, 110.000000) rotate(-315.000000) translate(-818.000000, -110.000000) "></path>
                <path d="M923.001596,322.001396 L935,322.000199 C936.104569,321.99969 937.000089,322.895032 937.000199,323.999601 C937.000199,323.999734 937.000199,323.999867 936.999801,324 L936.998604,335.998404 C936.998095,337.102818 936.102818,337.998095 934.998404,337.998604 L923,337.999801 C921.895431,338.00031 920.999911,337.104968 920.999801,336.000399 C920.999801,336.000266 920.999801,336.000133 921.000199,336 L921.001396,324.001596 C921.001905,322.897182 921.897182,322.001905 923.001596,322.001396 Z" id="Rectangle-Copy-4" fill="#FFCD0D" transform="translate(929.000000, 330.000000) rotate(-315.000000) translate(-929.000000, -330.000000) "></path>
                <path d="M340.500848,114.000848 C345.193864,114.00038 348.998684,117.804441 348.999152,122.497457 C348.999152,122.498022 348.999152,122.498587 348.999152,122.499152 C348.998684,127.193379 345.193379,130.998684 340.499152,130.999152 C335.806136,130.99962 332.001316,127.195559 332.000848,122.502543 C332.000848,122.501978 332.000848,122.501413 332.000848,122.500848 C332.001316,117.806621 335.806621,114.001316 340.500848,114.000848 Z" id="Rectangle-Copy-6" fill="#B8DFE8" transform="translate(340.500000, 122.500000) rotate(-315.000000) translate(-340.500000, -122.500000) "></path>
                <path d="M398.000598,432.000598 C401.313315,432.000268 403.999071,434.685488 403.999402,437.998205 C403.999402,437.998604 403.999402,437.999003 403.999402,437.999402 C403.999071,441.312973 401.312973,443.999071 397.999402,443.999402 C394.686685,443.999732 392.000929,441.314512 392.000598,438.001795 C392.000598,438.001396 392.000598,438.000997 392.000598,438.000598 C392.000929,434.687027 394.687027,432.000929 398.000598,432.000598 Z" id="Rectangle-Copy-7" fill="#1C416B" transform="translate(398.000000, 438.000000) rotate(-315.000000) translate(-398.000000, -438.000000) "></path>
            </g>
        </g>
    </g>
</svg>